<svg xmlns="http://www.w3.org/2000/svg" viewBox="0 0 170.07874 99.2126"><g id="afa88d3d-7a3b-476a-8b31-1c1d1f6c7338" data-name="Repere xy"><line x1="-64.2789" y1="87.61126" x2="166.75647" y2="87.61126" style="fill:none;stroke:#2e2e2d;stroke-miterlimit:10;stroke-width:0.75px"/><polygon points="166.013 88.701 170.079 87.611 166.013 86.522 166.013 88.701" style="fill:#2e2e2d"/><line x1="72.88334" y1="184.25197" x2="72.88324" y2="3.32226" style="fill:none;stroke:#2e2e2d;stroke-miterlimit:10;stroke-width:0.75px"/><polygon points="73.973 4.065 72.883 0 71.794 4.065 73.973 4.065" style="fill:#2e2e2d"/><line x1="157.45396" y1="86.14985" x2="157.45396" y2="89.07267" style="fill:none;stroke:#2e2e2d;stroke-miterlimit:10;stroke-width:0.75px"/><line x1="136.3113" y1="86.14985" x2="136.3113" y2="89.07267" style="fill:none;stroke:#2e2e2d;stroke-miterlimit:10;stroke-width:0.75px"/><line x1="115.16914" y1="86.15175" x2="115.16914" y2="89.07471" style="fill:none;stroke:#2e2e2d;stroke-miterlimit:10;stroke-width:0.75px"/><line x1="94.02551" y1="86.15175" x2="94.02551" y2="89.07471" style="fill:none;stroke:#2e2e2d;stroke-miterlimit:10;stroke-width:0.75px"/><line x1="51.73962" y1="86.14985" x2="51.73962" y2="89.07267" style="fill:none;stroke:#2e2e2d;stroke-miterlimit:10;stroke-width:0.75px"/><line x1="30.596" y1="86.14985" x2="30.596" y2="89.07267" style="fill:none;stroke:#2e2e2d;stroke-miterlimit:10;stroke-width:0.75px"/><line x1="9.45238" y1="86.14985" x2="9.45238" y2="89.07267" style="fill:none;stroke:#2e2e2d;stroke-miterlimit:10;stroke-width:0.75px"/><line x1="74.34471" y1="5.45203" x2="71.42188" y2="5.45203" style="fill:none;stroke:#2e2e2d;stroke-miterlimit:10;stroke-width:0.75px"/><line x1="74.34471" y1="25.99184" x2="71.42188" y2="25.99184" style="fill:none;stroke:#2e2e2d;stroke-miterlimit:10;stroke-width:0.75px"/><line x1="74.34471" y1="46.53165" x2="71.42188" y2="46.53165" style="fill:none;stroke:#2e2e2d;stroke-miterlimit:10;stroke-width:0.75px"/><line x1="74.34471" y1="67.07145" x2="71.42188" y2="67.07145" style="fill:none;stroke:#2e2e2d;stroke-miterlimit:10;stroke-width:0.75px"/><path d="M69.47484,91.58079a5.39847,5.39847,0,0,1,0,4.15625,1.43418,1.43418,0,0,1-2.45606-.0039,4.13328,4.13328,0,0,1-.416-2.08008q0-2.76855,1.64795-2.76855A1.34165,1.34165,0,0,1,69.47484,91.58079Zm-1.90821.37207a6.703,6.703,0,0,0,0,3.4043.711.711,0,0,0,1.36036,0,4.67269,4.67269,0,0,0,.21972-1.7041,4.747,4.747,0,0,0-.21582-1.7041.71547.71547,0,0,0-.68017-.50391A.72321.72321,0,0,0,67.56663,91.95286Z" style="fill:#2e2e2d"/><path d="M69.656,63.696v5.35156h-.71191V64.448l-1.11231.75195-.32764-.48046,1.52-1.02344Z" style="fill:#2e2e2d"/><path d="M70.21605,5.532v.57617h-.60791V7.42845h-.688V6.10814H66.824V5.58861l1.43213-3.6084.60791.23242L67.5598,5.532H68.928l.07227-1.45508h.60791V5.532Z" style="fill:#2e2e2d"/><path d="M69.22435,23.21507a1.27476,1.27476,0,0,1,.50391.48731,1.34537,1.34537,0,0,1,.17578.67675,1.25147,1.25147,0,0,1-.26367.82813,1.33945,1.33945,0,0,1-.75245.42773,1.28935,1.28935,0,0,1,.84815.38379,1.30251,1.30251,0,0,1,.32031.93653,1.67073,1.67073,0,0,1-.2041.82324,1.49554,1.49554,0,0,1-.584.584,1.754,1.754,0,0,1-.88427.21582,1.83972,1.83972,0,0,1-.82764-.17968,2.0544,2.0544,0,0,1-.66846-.54786l.43213-.36816a1.77272,1.77272,0,0,0,.49219.39648,1.19941,1.19941,0,0,0,.54785.124.90255.90255,0,0,0,.7002-.28418,1.1116,1.1116,0,0,0,.25976-.78028.98687.98687,0,0,0-.25976-.76367,1.07665,1.07665,0,0,0-.748-.23633H67.9763l.08789-.53613h.22412a.91414.91414,0,0,0,.65967-.248.93669.93669,0,0,0,.26026-.71191.85152.85152,0,0,0-.22022-.624.80655.80655,0,0,0-.604-.22364,1.18281,1.18281,0,0,0-.51612.11231,1.7286,1.7286,0,0,0-.47558.35156l-.376-.38379a1.95516,1.95516,0,0,1,1.43994-.64062A1.572,1.572,0,0,1,69.22435,23.21507Z" style="fill:#2e2e2d"/><path d="M69.30833,43.26146a1.283,1.283,0,0,1,.50782.51172,1.51017,1.51017,0,0,1,.17627.73242,2.3154,2.3154,0,0,1-.188.92383,4.64759,4.64759,0,0,1-.604.97168q-.416.53613-1.28027,1.5205H70.112l-.08789.5918h-2.896v-.55957q.928-1.07226,1.356-1.624a4.561,4.561,0,0,0,.59619-.94824,2.1252,2.1252,0,0,0,.168-.83594.93788.93788,0,0,0-.21192-.65625.73891.73891,0,0,0-.57226-.23242.99617.99617,0,0,0-.52784.13671,1.88317,1.88317,0,0,0-.46386.43165l-.44825-.34375a1.77446,1.77446,0,0,1,1.4961-.8086A1.57784,1.57784,0,0,1,69.30833,43.26146Z" style="fill:#2e2e2d"/><path d="M94.67747,90.97337v5.35156h-.71191v-4.5996l-1.1123.75195-.32813-.48047,1.52051-1.02344Z" style="fill:#2e2e2d"/><path d="M116.08568,91.073a1.27989,1.27989,0,0,1,.50781.51172,1.51032,1.51032,0,0,1,.17676.73242,2.31577,2.31577,0,0,1-.18848.92383,4.64287,4.64287,0,0,1-.60351.97168q-.416.53613-1.28028,1.52051h2.19141l-.08789.59179H113.906v-.55957q.92724-1.07226,1.35547-1.624a4.56578,4.56578,0,0,0,.59668-.94824,2.13374,2.13374,0,0,0,.168-.83594.94019.94019,0,0,0-.21192-.65625.73891.73891,0,0,0-.57226-.23242.99667.99667,0,0,0-.52832.13672,1.89156,1.89156,0,0,0-.46387.43164l-.44824-.34375a1.77568,1.77568,0,0,1,1.49609-.80859A1.57658,1.57658,0,0,1,116.08568,91.073Z" style="fill:#2e2e2d"/><path d="M137.08958,91.06517a1.2811,1.2811,0,0,1,.50391.4873,1.3453,1.3453,0,0,1,.17578.67676,1.25147,1.25147,0,0,1-.26367.82813,1.34085,1.34085,0,0,1-.75293.42773,1.29055,1.29055,0,0,1,.84863.38379,1.30461,1.30461,0,0,1,.32032.93652,1.67066,1.67066,0,0,1-.20411.82325,1.49874,1.49874,0,0,1-.584.584,1.75714,1.75714,0,0,1-.88477.21582,1.83886,1.83886,0,0,1-.82714-.17969,2.0606,2.0606,0,0,1-.66895-.54785l.43262-.36816a1.766,1.766,0,0,0,.49218.39648,1.19666,1.19666,0,0,0,.54786.124.904.904,0,0,0,.70019-.28418,1.11389,1.11389,0,0,0,.25977-.78028.98869.98869,0,0,0-.25977-.76367,1.07744,1.07744,0,0,0-.74805-.23633h-.33593l.08789-.53613h.22363a.91613.91613,0,0,0,.66016-.248.93831.93831,0,0,0,.25976-.71191.85335.85335,0,0,0-.21972-.624.807.807,0,0,0-.6045-.22363,1.17911,1.17911,0,0,0-.51562.11231,1.72109,1.72109,0,0,0-.47559.35156l-.376-.38379a1.95409,1.95409,0,0,1,1.43945-.64062A1.57388,1.57388,0,0,1,137.08958,91.06517Z" style="fill:#2e2e2d"/><path d="M159.18138,94.42845v.57617H158.574v1.32031h-.68848V95.00462h-2.0957v-.51953l1.43164-3.6084.6084.23242-1.30469,3.31934h1.36816l.07227-1.45508h.6084v1.45508Z" style="fill:#2e2e2d"/><path d="M3.87913,94.12572l-.0083-.39942H8.52415l.0083.39942Z" style="fill:#2e2e2d"/><path d="M11.33177,91.06517a1.26843,1.26843,0,0,1,.50391.4873,1.3453,1.3453,0,0,1,.17578.67676,1.25147,1.25147,0,0,1-.26367.82813,1.34137,1.34137,0,0,1-.752.42773,1.28808,1.28808,0,0,1,.84766.38379,1.30461,1.30461,0,0,1,.32031.93652,1.66094,1.66094,0,0,1-.20508.82325,1.47959,1.47959,0,0,1-.584.584,1.7534,1.7534,0,0,1-.88379.21582,1.83959,1.83959,0,0,1-.82764-.17969,2.0541,2.0541,0,0,1-.66845-.54785l.43213-.36816a1.77287,1.77287,0,0,0,.49218.39648,1.19958,1.19958,0,0,0,.54786.124.90432.90432,0,0,0,.70068-.28418,1.11847,1.11847,0,0,0,.25976-.78028.99234.99234,0,0,0-.25976-.76367,1.07962,1.07962,0,0,0-.74854-.23633h-.33593l.08789-.53613h.22412a.91218.91218,0,0,0,.65918-.248.93464.93464,0,0,0,.25976-.71191.85286.85286,0,0,0-.21875-.624.807.807,0,0,0-.60449-.22363,1.18277,1.18277,0,0,0-.51611.11231,1.72828,1.72828,0,0,0-.47559.35156l-.376-.38379a1.95513,1.95513,0,0,1,1.43994-.64062A1.57388,1.57388,0,0,1,11.33177,91.06517Z" style="fill:#2e2e2d"/><path d="M25.25169,94.12572l-.0083-.39942h4.65332l.0083.39942Z" style="fill:#2e2e2d"/><path d="M32.70824,91.073a1.28613,1.28613,0,0,1,.50781.51172,1.50981,1.50981,0,0,1,.17578.73242,2.315,2.315,0,0,1-.1875.92383,4.70248,4.70248,0,0,1-.60547.97168q-.416.53613-1.2793,1.52051H33.511l-.08789.59179H30.52757v-.55957q.928-1.07226,1.356-1.624a4.49892,4.49892,0,0,0,.59619-.94824,2.13374,2.13374,0,0,0,.168-.83594.93133.93133,0,0,0-.21289-.65625.73538.73538,0,0,0-.57129-.23242.99612.99612,0,0,0-.52783.13672,1.88293,1.88293,0,0,0-.46387.43164l-.44824-.34375a1.77445,1.77445,0,0,1,1.49609-.80859A1.58238,1.58238,0,0,1,32.70824,91.073Z" style="fill:#2e2e2d"/><path d="M46.29271,94.12572l-.0083-.39942h4.65332l.0083.39942Z" style="fill:#2e2e2d"/><path d="M53.6887,90.97337v5.35156h-.71191v-4.5996l-1.1123.75195-.32764-.48047,1.52-1.02344Z" style="fill:#2e2e2d"/></g><g id="b5a7920d-f0e1-4b8c-bd1a-f40b8d8d8f1f" data-name="Courbe"><path d="M9.45238,78.93169C53.47369,34.50955,111.85627,130.17883,156.37153,5.45205" style="fill:none;stroke:#c62958;stroke-miterlimit:10;stroke-width:0.75px"/><path d="M10.45385,79.92412a1.40991,1.40991,0,1,1-.009-1.99389A1.41006,1.41006,0,0,1,10.45385,79.92412Z" style="fill:#c62958"/><path d="M157.69941,5.926a1.40991,1.40991,0,1,0-1.80179.85394A1.41006,1.41006,0,0,0,157.69941,5.926Z" style="fill:#c62958"/><line x1="136.3113" y1="85.11078" x2="136.3113" y2="84.61078" style="fill:none;stroke:#2a66aa;stroke-miterlimit:10;stroke-width:0.5px"/><line x1="136.3113" y1="83.62494" x2="136.3113" y2="50.59922" style="fill:none;stroke:#2a66aa;stroke-miterlimit:10;stroke-width:0.5px;stroke-dasharray:0.9858424067497253,0.9858424067497253"/><line x1="136.3113" y1="50.1063" x2="136.3113" y2="49.6063" style="fill:none;stroke:#2a66aa;stroke-miterlimit:10;stroke-width:0.5px"/><line x1="75.09289" y1="46.53309" x2="75.59289" y2="46.53309" style="fill:none;stroke:#2a66aa;stroke-miterlimit:10;stroke-width:0.5px"/><line x1="76.5811" y1="46.53309" x2="131.42707" y2="46.53309" style="fill:none;stroke:#2a66aa;stroke-miterlimit:10;stroke-width:0.5px;stroke-dasharray:0.9882157444953918,0.9882157444953918"/><line x1="131.92118" y1="46.53309" x2="132.42118" y2="46.53309" style="fill:none;stroke:#2a66aa;stroke-miterlimit:10;stroke-width:0.5px"/><line x1="74.58052" y1="67.0729" x2="173.14849" y2="67.0729" style="fill:none;stroke:#b7c947;stroke-miterlimit:10;stroke-width:0.5px;stroke-dasharray:1"/><line x1="-42.72713" y1="67.0729" x2="69.3143" y2="67.0729" style="fill:none;stroke:#b7c947;stroke-miterlimit:10;stroke-width:0.5px;stroke-dasharray:1.0048558712005615,1.0048558712005615"/><line x1="69.81673" y1="67.0729" x2="70.31673" y2="67.0729" style="fill:none;stroke:#b7c947;stroke-miterlimit:10;stroke-width:0.5px"/><path d="M145.574,12.57249c0-.02685-.00977-.05371-.00977-.07177,0-.0542.01856-.08106.0459-.08106a.74623.74623,0,0,1,.44043.72022c0,.81005-1.2959,1.55761-2.54785,1.55761a2.41636,2.41636,0,0,1-2.583-2.70117,4.28644,4.28644,0,0,1,4.17676-4.105c1.332,0,1.87305.72022,1.87305,1.33252s-.93653,1.03516-1.126,1.03516c-.02637,0-.04492-.00879-.04492-.02686s.00879-.03613.04492-.0542a1.28311,1.28311,0,0,0,.24316-.82812,1.11089,1.11089,0,0,0-1.16992-1.09864,3.3246,3.3246,0,0,0-2.9707,3.65528c0,2.14258,1.51172,2.21484,1.67383,2.21484a1.76974,1.76974,0,0,0,1.9541-1.53955Z" style="fill:#c62958"/><path d="M148.46361,17.074a1.73216,1.73216,0,0,1-.50977.9292,1.17064,1.17064,0,0,1-.79785.3623.51062.51062,0,0,1-.33008-.08691.27018.27018,0,0,1-.10547-.21778.31214.31214,0,0,1,.06543-.19433.23117.23117,0,0,1,.19239-.084.263.263,0,0,1,.13867.03711.48243.48243,0,0,1,.10742.08887.7803.7803,0,0,1,.08105.11816q.04542.07619.07618.12891a.44151.44151,0,0,0,.33886-.26807,2.8145,2.8145,0,0,0,.24414-.71875l.4668-2.21533h-.498l.05274-.23095h.498l.0371-.17334a1.92784,1.92784,0,0,1,.19434-.5376,1.647,1.647,0,0,1,.29883-.40186,1.31352,1.31352,0,0,1,.38086-.25732.99987.99987,0,0,1,.40625-.09424.52874.52874,0,0,1,.33105.084.26271.26271,0,0,1,.10449.21534.31321.31321,0,0,1-.0625.19384.2263.2263,0,0,1-.19433.084.27775.27775,0,0,1-.13867-.03369.43112.43112,0,0,1-.1084-.08692.68688.68688,0,0,1-.08106-.1206,1.10933,1.10933,0,0,0-.07617-.126.39171.39171,0,0,0-.3125.231,2.67787,2.67787,0,0,0-.24414.75049l-.05762.27295h.64551l-.05762.231h-.63476Z" style="fill:#c62958"/><line x1="30.596" y1="64.40624" x2="30.596" y2="69.73957" style="fill:none;stroke:#2a66aa;stroke-miterlimit:10;stroke-width:0.75px"/><line x1="33.26267" y1="67.0729" x2="27.92934" y2="67.0729" style="fill:none;stroke:#2a66aa;stroke-miterlimit:10;stroke-width:0.75px"/><line x1="51.73962" y1="64.40624" x2="51.73962" y2="69.73957" style="fill:none;stroke:#2a66aa;stroke-miterlimit:10;stroke-width:0.75px"/><line x1="54.40629" y1="67.0729" x2="49.07296" y2="67.0729" style="fill:none;stroke:#2a66aa;stroke-miterlimit:10;stroke-width:0.75px"/><line x1="115.16841" y1="64.40624" x2="115.16841" y2="69.73957" style="fill:none;stroke:#2a66aa;stroke-miterlimit:10;stroke-width:0.75px"/><line x1="117.83507" y1="67.0729" x2="112.50174" y2="67.0729" style="fill:none;stroke:#2a66aa;stroke-miterlimit:10;stroke-width:0.75px"/><line x1="136.3113" y1="43.86643" x2="136.3113" y2="49.19976" style="fill:none;stroke:#2a66aa;stroke-miterlimit:10;stroke-width:0.75px"/><line x1="138.97797" y1="46.5331" x2="133.64464" y2="46.5331" style="fill:none;stroke:#2a66aa;stroke-miterlimit:10;stroke-width:0.75px"/><path d="M142.9431,43.71068a8.05808,8.05808,0,0,0-1.80957,5.58154,7.99236,7.99236,0,0,0,1.80957,5.55518l-.05371.07128a6.33631,6.33631,0,0,1-1.71973-2.28613,8.2659,8.2659,0,0,1,0-6.70752,6.3808,6.3808,0,0,1,1.71973-2.27734Z" style="fill:#2a66aa"/><path d="M146.87572,47.21263a1.334,1.334,0,0,1-1.14258,1.41357,1.36312,1.36312,0,0,1,1.31445,1.48536,1.77286,1.77286,0,0,1-1.88183,1.82763,2.03728,2.03728,0,0,1-1.6836-.81933l.48633-.41407a1.50648,1.50648,0,0,0,1.16992.585,1.05422,1.05422,0,0,0,1.08008-1.19727A.99266.99266,0,0,0,145.0847,48.968h-.37793l.09863-.603h.252a.98143.98143,0,0,0,1.03515-1.08007.864.864,0,0,0-.92675-.95459,1.52562,1.52562,0,0,0-1.11622.522l-.42382-.43164a2.2122,2.2122,0,0,1,1.62109-.72071A1.51218,1.51218,0,0,1,146.87572,47.21263Z" style="fill:#2a66aa"/><path d="M151.34349,51.66771a1.294,1.294,0,0,1-.14258.5957,2.32508,2.32508,0,0,1-.32715.48633,3.03967,3.03967,0,0,1-.40039.373,2.71523,2.71523,0,0,1-.38672.25488l-.20214-.294a3.70391,3.70391,0,0,0,.376-.2666,2.23367,2.23367,0,0,0,.27442-.26074,1.72041,1.72041,0,0,0,.22363-.334,1.176,1.176,0,0,0,.11914-.40918h-.22461a.65148.65148,0,0,1-.459-.15332.55377.55377,0,0,1-.01563-.77149.51222.51222,0,0,1,.40918-.17383.66494.66494,0,0,1,.56738.25293A1.1537,1.1537,0,0,1,151.34349,51.66771Zm-.0752-3.59668a.56657.56657,0,0,1-.17773.42041.6.6,0,0,1-.84766,0,.56657.56657,0,0,1-.17773-.42041.60157.60157,0,0,1,1.20312,0Z" style="fill:#2a66aa"/><path d="M157.35716,47.31175a3.393,3.393,0,0,1-.8916,2.1333c-.31543.40528-.792.97266-1.44043,1.71094h2.4668l-.09864.666h-3.25976v-.63038c.69336-.80127,1.207-1.41308,1.53125-1.82714a3.24113,3.24113,0,0,0,.85449-2.00782c0-.56738-.27832-.99951-.88183-.99951a1.36009,1.36009,0,0,0-1.11622.63965l-.50488-.38721a2.00907,2.00907,0,0,1,1.6836-.90967A1.54413,1.54413,0,0,1,157.35716,47.31175Z" style="fill:#2a66aa"/><path d="M160.11009,49.28343a7.93086,7.93086,0,0,0-1.80957-5.564l.06348-.07178h0a6.46637,6.46637,0,0,1,1.71,2.27734,7.61372,7.61372,0,0,1,.71191,3.34912,7.80528,7.80528,0,0,1-.70312,3.3584,6.25906,6.25906,0,0,1-1.71875,2.28613l-.06348-.0625A8.05123,8.05123,0,0,0,160.11009,49.28343Z" style="fill:#2a66aa"/></g></svg>