<svg xmlns="http://www.w3.org/2000/svg" viewBox="0 0 113.38583 127.10505"><g id="e3e7efbf-47bf-4254-91a2-4fdcf61af694" data-name="Reperes"><polyline points="23.451 3.322 23.451 48.202 105.168 48.202" style="fill:none;stroke:#2e2e2d;stroke-miterlimit:10;stroke-width:0.75px"/><polygon points="22.362 4.065 23.451 0 24.541 4.065 22.362 4.065" style="fill:#2e2e2d"/><polygon points="104.425 49.291 108.49 48.202 104.425 47.112 104.425 49.291" style="fill:#2e2e2d"/><path d="M20.13615,52.17169a5.39835,5.39835,0,0,1,0,4.15625A1.43418,1.43418,0,0,1,17.6801,56.324a4.13316,4.13316,0,0,1-.416-2.08008q0-2.76855,1.64746-2.76855A1.34186,1.34186,0,0,1,20.13615,52.17169Zm-1.9082.37207a6.70272,6.70272,0,0,0,0,3.40429.711.711,0,0,0,1.36035,0A4.67257,4.67257,0,0,0,19.808,54.244a4.75844,4.75844,0,0,0-.21582-1.7041.71284.71284,0,0,0-1.36426.00391Z" style="fill:#2e2e2d"/><polyline points="23.451 77.236 23.451 114.023 105.168 114.023" style="fill:none;stroke:#2e2e2d;stroke-miterlimit:10;stroke-width:0.75px"/><polygon points="22.362 77.979 23.451 73.914 24.541 77.979 22.362 77.979" style="fill:#2e2e2d"/><polygon points="104.425 115.112 108.49 114.023 104.425 112.933 104.425 115.112" style="fill:#2e2e2d"/><path d="M20.13615,117.99249a5.39835,5.39835,0,0,1,0,4.15625,1.43418,1.43418,0,0,1-2.45605-.00391,4.13316,4.13316,0,0,1-.416-2.08008q0-2.76855,1.64746-2.76855A1.34186,1.34186,0,0,1,20.13615,117.99249Zm-1.9082.37207a6.70272,6.70272,0,0,0,0,3.40429.711.711,0,0,0,1.36035,0,4.67257,4.67257,0,0,0,.21973-1.7041,4.75844,4.75844,0,0,0-.21582-1.7041.71285.71285,0,0,0-1.36426.00391Z" style="fill:#2e2e2d"/></g><g id="b6eb134f-a66d-4399-bf7f-536ef89e1e1c" data-name="Courbe"><path d="M5.94474,13.10284a2.9676,2.9676,0,0,1-.873,1.59375,2.00869,2.00869,0,0,1-1.36914.62109.88364.88364,0,0,1-.56641-.14843.46526.46526,0,0,1-.18066-.374.53056.53056,0,0,1,.1123-.333.39329.39329,0,0,1,.3291-.144.44757.44757,0,0,1,.23828.063.80788.80788,0,0,1,.18457.15332,1.31208,1.31208,0,0,1,.13965.20264c.05078.08691.09473.16015.13086.22021a.75542.75542,0,0,0,.58008-.459,4.81429,4.81429,0,0,0,.41895-1.2334L5.891,9.46563H5.03557l.08984-.396h.85547l.0625-.29688a3.35338,3.35338,0,0,1,.333-.92285,2.89689,2.89689,0,0,1,.51367-.689A2.22283,2.22283,0,0,1,7.5424,6.72a1.7199,1.7199,0,0,1,.69824-.16211.90556.90556,0,0,1,.56641.144.45277.45277,0,0,1,.18066.36914.53811.53811,0,0,1-.10839.333.38863.38863,0,0,1-.333.144.47848.47848,0,0,1-.23828-.0581.72185.72185,0,0,1-.18457-.14893,1.07145,1.07145,0,0,1-.13965-.207A1.72314,1.72314,0,0,0,7.853,6.91827a.66774.66774,0,0,0-.53516.396,4.51659,4.51659,0,0,0-.41894,1.2876l-.09864.46778H7.90764L7.808,9.46612H6.71916Z" style="fill:#2a66aa"/><path d="M12.04631,5.25274a8.05808,8.05808,0,0,0-1.80957,5.58154A7.99109,7.99109,0,0,0,12.04631,16.389l-.05371.07178a6.32994,6.32994,0,0,1-1.71973-2.28662,7.67641,7.67641,0,0,1-.71094-3.35791,7.61334,7.61334,0,0,1,.71094-3.34912A6.38075,6.38075,0,0,1,11.9926,5.18975Z" style="fill:#2a66aa"/><path d="M16.974,11.7254a2.99268,2.99268,0,0,1-.5625.91845,2.849,2.849,0,0,1-.80566.62549,2.04343,2.04343,0,0,1-.9502.23,2.94349,2.94349,0,0,1-.666-.06787,1.95859,1.95859,0,0,1-.48633-.17529,1.49543,1.49543,0,0,1-.3418-.25684,2.1136,2.1136,0,0,1-.252-.31933l1.13379-4.96973c.01269-.06592.02441-.12451.03613-.17529a.6154.6154,0,0,0,.01856-.14893.49939.49939,0,0,0-.04981-.24756.31942.31942,0,0,0-.14844-.13037.855.855,0,0,0-.23437-.04931c-.09571-.00928-.19141-.01954-.28809-.03174l.06348-.27,1.6289-.09912.04493.063-.666,2.92578h.01856a2.8948,2.8948,0,0,1,.69726-.48584,1.41452,1.41452,0,0,1,.58106-.13526,1.3036,1.3036,0,0,1,1.05273.45948,1.83252,1.83252,0,0,1,.3877,1.22412A2.97734,2.97734,0,0,1,16.974,11.7254ZM16.23576,10.159a1.01663,1.01663,0,0,0-.13965-.38721.68751.68751,0,0,0-.27441-.26562.9136.9136,0,0,0-.43653-.09424.88282.88282,0,0,0-.293.04932,1.46064,1.46064,0,0,0-.28321.13965,1.7399,1.7399,0,0,0-.24707.19384c-.081.07471-.15527.13916-.2207.19336l-.58594,2.61084a.4531.4531,0,0,0,.07715.19336.71359.71359,0,0,0,.17578.18457.93752.93752,0,0,0,.61133.207,1.14789,1.14789,0,0,0,.65332-.20263,1.86274,1.86274,0,0,0,.52637-.55371,2.81016,2.81016,0,0,0,.36035-.8462,3.91243,3.91243,0,0,0,.11719-.9541A2.70924,2.70924,0,0,0,16.23576,10.159Z" style="fill:#2a66aa"/><path d="M19.74943,10.8255a7.9309,7.9309,0,0,0-1.80957-5.564l.06348-.07178h0a6.46632,6.46632,0,0,1,1.71,2.27735,7.61366,7.61366,0,0,1,.71191,3.34912,7.8,7.8,0,0,1-.70312,3.35791,6.25288,6.25288,0,0,1-1.71875,2.28662l-.06348-.063A8.04924,8.04924,0,0,0,19.74943,10.8255Z" style="fill:#2a66aa"/><path d="M5.94474,33.15362a2.9676,2.9676,0,0,1-.873,1.59375,2.00869,2.00869,0,0,1-1.36914.62109A.88364.88364,0,0,1,3.13615,35.22a.46525.46525,0,0,1-.18066-.374.53051.53051,0,0,1,.1123-.333.39327.39327,0,0,1,.3291-.144.44757.44757,0,0,1,.23828.063.80788.80788,0,0,1,.18457.15332,1.31258,1.31258,0,0,1,.13965.20264c.05078.08691.09473.16015.13086.22021a.7554.7554,0,0,0,.58008-.459,4.81429,4.81429,0,0,0,.41895-1.2334L5.891,29.51641H5.03557l.08984-.396h.85547l.0625-.29688a3.35338,3.35338,0,0,1,.333-.92285,2.89663,2.89663,0,0,1,.51367-.689,2.22267,2.22267,0,0,1,.65234-.44092,1.7199,1.7199,0,0,1,.69824-.16211.90556.90556,0,0,1,.56641.144.45277.45277,0,0,1,.18066.36914.53811.53811,0,0,1-.10839.333.38863.38863,0,0,1-.333.144.47848.47848,0,0,1-.23828-.0581.72185.72185,0,0,1-.18457-.14893,1.07145,1.07145,0,0,1-.13965-.207,1.72314,1.72314,0,0,0-.13086-.21582.66775.66775,0,0,0-.53516.396,4.51639,4.51639,0,0,0-.41894,1.28759l-.09864.46778H7.90764L7.808,29.5169H6.71916Z" style="fill:#2a66aa"/><path d="M12.04631,25.30352a8.0581,8.0581,0,0,0-1.80957,5.58155,7.99108,7.99108,0,0,0,1.80957,5.55468l-.05371.07178a6.32994,6.32994,0,0,1-1.71973-2.28662,8.26475,8.26475,0,0,1,0-6.707,6.38075,6.38075,0,0,1,1.71973-2.27735Z" style="fill:#2a66aa"/><path d="M15.52873,32.83868c-.06543.0542-.1416.12012-.22949.19824a2.05763,2.05763,0,0,1-.31055.2251,2.57344,2.57344,0,0,1-.373.19336,1.11006,1.11006,0,0,1-.43652.08545,1.21064,1.21064,0,0,1-1.00391-.459A1.9589,1.9589,0,0,1,12.81,31.83038a2.87576,2.87576,0,0,1,.20312-1.0625,3.0559,3.0559,0,0,1,.5625-.918,2.81171,2.81171,0,0,1,.80567-.63037,2.025,2.025,0,0,1,.95019-.24317,2.07763,2.07763,0,0,1,.59864.08545,1.70576,1.70576,0,0,1,.44531.19385l.81055-.207.04492.063-.666,2.83594c-.02441.08984-.04883.20068-.07226.333a1.77266,1.77266,0,0,0-.03614.28809.42534.42534,0,0,0,.10352.3374.56617.56617,0,0,0,.35547.08545,1.52356,1.52356,0,0,0,.23828-.02685,1.75085,1.75085,0,0,0,.23926-.0542l-.06348.27929q-.3955.16187-.58984.2295a1.44534,1.44534,0,0,1-.47266.06738.68286.68286,0,0,1-.499-.17969.69276.69276,0,0,1-.20313-.46826Zm.63476-3.05664a.60128.60128,0,0,0-.12988-.24756.66165.66165,0,0,0-.24316-.17529.96846.96846,0,0,0-.3877-.06739,1.07343,1.07343,0,0,0-.625.21143,2.22188,2.22188,0,0,0-.54492.5625,2.95793,2.95793,0,0,0-.36914.81055,3.32523,3.32523,0,0,0-.14355.96289,3.14832,3.14832,0,0,0,.03125.47754,1.352,1.352,0,0,0,.1123.37793.56848.56848,0,0,0,.24316.26123.82681.82681,0,0,0,.40528.08984,1.11488,1.11488,0,0,0,.51269-.13965,2.59426,2.59426,0,0,0,.61231-.48144l.55859-2.36768A1.14555,1.14555,0,0,0,16.16349,29.782Z" style="fill:#2a66aa"/><path d="M19.92033,30.87628a7.92634,7.92634,0,0,0-1.80957-5.564l.06348-.07178h0a6.46632,6.46632,0,0,1,1.71,2.27735,7.61366,7.61366,0,0,1,.71191,3.34912,7.8,7.8,0,0,1-.70312,3.35791,6.253,6.253,0,0,1-1.71875,2.28662l-.06348-.063A8.04924,8.04924,0,0,0,19.92033,30.87628Z" style="fill:#2a66aa"/><path d="M61.90373,56.44317c-.06641.0542-.14258.12012-.23047.19824a2.05643,2.05643,0,0,1-.31055.2251,2.57384,2.57384,0,0,1-.373.19336,1.11011,1.11011,0,0,1-.43653.08545,1.21064,1.21064,0,0,1-1.0039-.459,1.9589,1.9589,0,0,1-.36524-1.25147,2.8756,2.8756,0,0,1,.20313-1.0625,3.0555,3.0555,0,0,1,.5625-.918,2.81167,2.81167,0,0,1,.80566-.63037,2.025,2.025,0,0,1,.9502-.24316,2.07716,2.07716,0,0,1,.59863.08545,1.70529,1.70529,0,0,1,.44531.19384l.81055-.207.04492.063-.666,2.83594c-.02442.08984-.04883.20068-.07227.333a1.77329,1.77329,0,0,0-.03613.28808.42538.42538,0,0,0,.10351.3374.56617.56617,0,0,0,.35547.08545,1.52356,1.52356,0,0,0,.23828-.02685,1.75085,1.75085,0,0,0,.23926-.0542l-.06348.2793q-.3955.16187-.58984.22949a1.4453,1.4453,0,0,1-.47266.06738.68288.68288,0,0,1-.499-.17969.69266.69266,0,0,1-.20312-.46826Zm.63379-3.05664a.60152.60152,0,0,0-.12988-.24756.66177.66177,0,0,0-.24317-.17529.96859.96859,0,0,0-.38769-.06738,1.07342,1.07342,0,0,0-.625.21142,2.22207,2.22207,0,0,0-.54493.5625,2.95823,2.95823,0,0,0-.36914.81055,3.32523,3.32523,0,0,0-.14355.96289,3.14823,3.14823,0,0,0,.03125.47754,1.35228,1.35228,0,0,0,.1123.37793.56845.56845,0,0,0,.24317.26123.82666.82666,0,0,0,.40527.08984,1.11483,1.11483,0,0,0,.5127-.13965,2.59417,2.59417,0,0,0,.6123-.48144l.55859-2.36768A1.14605,1.14605,0,0,0,62.53752,53.38653Z" style="fill:#2a66aa"/><path d="M92.75822,55.38067a2.99273,2.99273,0,0,1-.5625.91846,2.84918,2.84918,0,0,1-.80566.62549,2.04343,2.04343,0,0,1-.9502.23,2.94349,2.94349,0,0,1-.666-.06787,1.959,1.959,0,0,1-.48633-.1753,1.49541,1.49541,0,0,1-.3418-.25683,2.1137,2.1137,0,0,1-.25195-.31934l1.13379-4.96973c.01269-.06591.02441-.12451.03613-.17529a.61529.61529,0,0,0,.01855-.14892.4994.4994,0,0,0-.0498-.24756.31936.31936,0,0,0-.14844-.13037.85455.85455,0,0,0-.23437-.04932c-.09571-.00928-.19141-.01953-.28809-.03174l.06348-.27,1.6289-.09912.04493.063-.666,2.92578h.01856a2.8948,2.8948,0,0,1,.69726-.48584,1.41466,1.41466,0,0,1,.58106-.13525,1.30362,1.30362,0,0,1,1.05273.45947,1.83253,1.83253,0,0,1,.3877,1.22412A2.97727,2.97727,0,0,1,92.75822,55.38067Zm-.73828-1.56641a1.01651,1.01651,0,0,0-.13965-.3872.68754.68754,0,0,0-.27441-.26563.9136.9136,0,0,0-.43653-.09424.88307.88307,0,0,0-.293.04932,1.46064,1.46064,0,0,0-.28321.13965,1.73927,1.73927,0,0,0-.24707.19385c-.081.0747-.15527.13916-.2207.19336l-.58594,2.61084a.45315.45315,0,0,0,.07715.19336.71391.71391,0,0,0,.17578.18457.93752.93752,0,0,0,.61133.207,1.1479,1.1479,0,0,0,.65332-.20264,1.86274,1.86274,0,0,0,.52637-.55371,2.81,2.81,0,0,0,.36035-.84619,3.91243,3.91243,0,0,0,.11719-.9541A2.70935,2.70935,0,0,0,92.01994,53.81426Z" style="fill:#2a66aa"/><line x1="61.45229" y1="47.91979" x2="61.45229" y2="47.41979" style="fill:none;stroke:#2a66aa;stroke-miterlimit:10;stroke-width:0.5px"/><line x1="61.45229" y1="46.4685" x2="61.45229" y2="31.72347" style="fill:none;stroke:#2a66aa;stroke-miterlimit:10;stroke-width:0.5px;stroke-dasharray:0.9512922763824463,0.9512922763824463"/><line x1="61.45229" y1="31.24782" x2="61.45229" y2="30.74782" style="fill:none;stroke:#2a66aa;stroke-miterlimit:10;stroke-width:0.5px"/><line x1="90.77652" y1="47.91979" x2="90.77652" y2="47.41979" style="fill:none;stroke:#2a66aa;stroke-miterlimit:10;stroke-width:0.5px"/><line x1="90.77652" y1="46.44035" x2="90.77652" y2="11.67011" style="fill:none;stroke:#2a66aa;stroke-miterlimit:10;stroke-width:0.5px;stroke-dasharray:0.9794434309005737,0.9794434309005737"/><line x1="90.77652" y1="11.18038" x2="90.77652" y2="10.68038" style="fill:none;stroke:#2a66aa;stroke-miterlimit:10;stroke-width:0.5px"/><line x1="24.71259" y1="30.74782" x2="25.21259" y2="30.74782" style="fill:none;stroke:#2a66aa;stroke-miterlimit:10;stroke-width:0.5px"/><line x1="26.23372" y1="30.74782" x2="60.44171" y2="30.74782" style="fill:none;stroke:#2a66aa;stroke-miterlimit:10;stroke-width:0.5px;stroke-dasharray:1.0211342573165894,1.0211342573165894"/><line x1="60.95229" y1="30.74782" x2="61.45229" y2="30.74782" style="fill:none;stroke:#2a66aa;stroke-miterlimit:10;stroke-width:0.5px"/><line x1="24.97042" y1="10.69758" x2="25.47042" y2="10.69758" style="fill:none;stroke:#2a66aa;stroke-miterlimit:10;stroke-width:0.5px"/><line x1="26.46744" y1="10.69758" x2="89.77802" y2="10.69758" style="fill:none;stroke:#2a66aa;stroke-miterlimit:10;stroke-width:0.5px;stroke-dasharray:0.997016966342926,0.997016966342926"/><line x1="90.27652" y1="10.69758" x2="90.77652" y2="10.69758" style="fill:none;stroke:#2a66aa;stroke-miterlimit:10;stroke-width:0.5px"/><path d="M42.68068,36.65917S78.69317,30.53249,97.09608,2.6013" style="fill:none;stroke:#c62958;stroke-miterlimit:10;stroke-width:0.75px"/><path d="M5.94474,110.06866a2.9676,2.9676,0,0,1-.873,1.59375,2.00869,2.00869,0,0,1-1.36914.62109.88364.88364,0,0,1-.56641-.14843.46592.46592,0,0,1-.18066-.374.52957.52957,0,0,1,.1123-.333.39361.39361,0,0,1,.3291-.14453.44784.44784,0,0,1,.23828.06348.79547.79547,0,0,1,.18457.15332,1.32864,1.32864,0,0,1,.13965.20215c.05078.08691.09473.16015.13086.2207a.75644.75644,0,0,0,.58008-.459,4.81429,4.81429,0,0,0,.41895-1.2334L5.891,106.431H5.03557l.08984-.3955h.85547l.0625-.29688a3.3418,3.3418,0,0,1,.333-.92285,2.88988,2.88988,0,0,1,.51367-.68945,2.22112,2.22112,0,0,1,.65234-.44043,1.71193,1.71193,0,0,1,.69824-.16211.90576.90576,0,0,1,.56641.14355.45408.45408,0,0,1,.18066.36914.53811.53811,0,0,1-.10839.333.38765.38765,0,0,1-.333.14453.47359.47359,0,0,1-.23828-.05859.73026.73026,0,0,1-.18457-.14844,1.10206,1.10206,0,0,1-.13965-.207,1.65543,1.65543,0,0,0-.13086-.21582.66806.66806,0,0,0-.53516.39551,4.52632,4.52632,0,0,0-.41894,1.28808l-.09864.46778H7.90764l-.09961.39648H6.71916Z" style="fill:#2a66aa"/><path d="M12.04631,102.21807a9.47215,9.47215,0,0,0,0,11.13672l-.05371.07129A6.32787,6.32787,0,0,1,10.27287,111.14a8.26475,8.26475,0,0,1,0-6.707,6.3764,6.3764,0,0,1,1.71973-2.27735Z" style="fill:#2a66aa"/><path d="M16.974,108.69073a3.00088,3.00088,0,0,1-.5625.91894,2.847,2.847,0,0,1-.80566.625,2.04377,2.04377,0,0,1-.9502.23047,2.94108,2.94108,0,0,1-.666-.06836,1.979,1.979,0,0,1-.48633-.1748,1.50968,1.50968,0,0,1-.3418-.25684,2.1136,2.1136,0,0,1-.252-.31933l1.13379-4.96973c.01269-.06641.02441-.125.03613-.17578a.61152.61152,0,0,0,.01856-.14844.5014.5014,0,0,0-.04981-.248.31846.31846,0,0,0-.14844-.12989.83555.83555,0,0,0-.23437-.0498c-.09571-.00879-.19141-.01953-.28809-.03125l.06348-.27051,1.6289-.09863.04493.0625-.666,2.92578h.01856a2.90488,2.90488,0,0,1,.69726-.48535,1.40787,1.40787,0,0,1,.58106-.13575,1.30252,1.30252,0,0,1,1.05273.46,1.83115,1.83115,0,0,1,.3877,1.22363A2.97366,2.97366,0,0,1,16.974,108.69073Zm-.73828-1.56641a1.01411,1.01411,0,0,0-.13965-.38672.68438.68438,0,0,0-.27441-.26562.90779.90779,0,0,0-.43653-.09473.87086.87086,0,0,0-.293.04981,1.43313,1.43313,0,0,0-.28321.13965,1.70027,1.70027,0,0,0-.24707.19336c-.081.07519-.15527.13964-.2207.19335l-.58594,2.61133a.45786.45786,0,0,0,.07715.19336.71359.71359,0,0,0,.17578.18457.93752.93752,0,0,0,.61133.207,1.14473,1.14473,0,0,0,.65332-.20312,1.86274,1.86274,0,0,0,.52637-.55371,2.80729,2.80729,0,0,0,.36035-.84571,3.91537,3.91537,0,0,0,.11719-.9541A2.71484,2.71484,0,0,0,16.23576,107.12432Z" style="fill:#2a66aa"/><path d="M19.74943,107.79132a7.93287,7.93287,0,0,0-1.80957-5.56446l.06348-.07129h0a6.46184,6.46184,0,0,1,1.71,2.27735,7.61,7.61,0,0,1,.71191,3.34863,7.80069,7.80069,0,0,1-.70312,3.3584,6.25083,6.25083,0,0,1-1.71875,2.28613l-.06348-.0625A8.05,8.05,0,0,0,19.74943,107.79132Z" style="fill:#2a66aa"/><path d="M5.94474,92.70733a2.9676,2.9676,0,0,1-.873,1.59375,2.00869,2.00869,0,0,1-1.36914.62109.88364.88364,0,0,1-.56641-.14843.46592.46592,0,0,1-.18066-.374.52952.52952,0,0,1,.1123-.333.39359.39359,0,0,1,.3291-.14454.44784.44784,0,0,1,.23828.06348.79547.79547,0,0,1,.18457.15332,1.32915,1.32915,0,0,1,.13965.20215c.05078.08691.09473.16016.13086.2207a.75644.75644,0,0,0,.58008-.459,4.81429,4.81429,0,0,0,.41895-1.2334l.80175-3.7998H5.03557l.08984-.39551h.85547l.0625-.29688a3.3418,3.3418,0,0,1,.333-.92285,2.88988,2.88988,0,0,1,.51367-.68945,2.22112,2.22112,0,0,1,.65234-.44043,1.71193,1.71193,0,0,1,.69824-.16211.90576.90576,0,0,1,.56641.14355.45408.45408,0,0,1,.18066.36914.53811.53811,0,0,1-.10839.333.38765.38765,0,0,1-.333.14453.47359.47359,0,0,1-.23828-.05859.73026.73026,0,0,1-.18457-.14844,1.10174,1.10174,0,0,1-.13965-.207,1.65543,1.65543,0,0,0-.13086-.21582.66808.66808,0,0,0-.53516.39551,4.52632,4.52632,0,0,0-.41894,1.28808l-.09864.46778H7.90764l-.09961.39648H6.71916Z" style="fill:#2a66aa"/><path d="M12.04631,84.85723a8.05735,8.05735,0,0,0-1.80957,5.58155,7.99185,7.99185,0,0,0,1.80957,5.55468l-.05371.07129a6.32787,6.32787,0,0,1-1.71973-2.28613,8.26475,8.26475,0,0,1,0-6.707,6.37636,6.37636,0,0,1,1.71973-2.27734Z" style="fill:#2a66aa"/><path d="M15.52873,92.3919c-.06543.05469-.1416.12012-.22949.19824a2.02522,2.02522,0,0,1-.31055.22559,2.67467,2.67467,0,0,1-.373.19336,1.11855,1.11855,0,0,1-.43652.085,1.20932,1.20932,0,0,1-1.00391-.459,1.95654,1.95654,0,0,1-.36523-1.251,2.8739,2.8739,0,0,1,.20312-1.0625,3.04986,3.04986,0,0,1,.5625-.918,2.80483,2.80483,0,0,1,.80567-.63086,2.025,2.025,0,0,1,.95019-.24316,2.07776,2.07776,0,0,1,.59864.08593,1.69034,1.69034,0,0,1,.44531.19336l.81055-.207.04492.06348-.666,2.83594c-.02441.08984-.04883.20019-.07226.333a1.76652,1.76652,0,0,0-.03614.28809.42411.42411,0,0,0,.10352.33691.56266.56266,0,0,0,.35547.08594,1.47845,1.47845,0,0,0,.23828-.02734,1.76286,1.76286,0,0,0,.23926-.05371l-.06348.27929c-.26367.10743-.46.18457-.58984.2295a1.44534,1.44534,0,0,1-.47266.06738.68286.68286,0,0,1-.499-.17969.693.693,0,0,1-.20313-.46875Zm.63476-3.05664a.5997.5997,0,0,0-.12988-.24707.65707.65707,0,0,0-.24316-.17578.96865.96865,0,0,0-.3877-.06738,1.07064,1.07064,0,0,0-.625.21191,2.20611,2.20611,0,0,0-.54492.5625,2.9512,2.9512,0,0,0-.36914.81055,3.32029,3.32029,0,0,0-.14355.96289,3.15708,3.15708,0,0,0,.03125.47754,1.352,1.352,0,0,0,.1123.37793.56735.56735,0,0,0,.24316.26074.82131.82131,0,0,0,.40528.08984,1.1089,1.1089,0,0,0,.51269-.13965,2.58138,2.58138,0,0,0,.61231-.48144l.55859-2.36719A1.14963,1.14963,0,0,0,16.16349,89.33526Z" style="fill:#2a66aa"/><path d="M19.92033,90.43a7.92634,7.92634,0,0,0-1.80957-5.564l.06348-.07177h0a6.46179,6.46179,0,0,1,1.71,2.27734,7.61,7.61,0,0,1,.71191,3.34863,7.80062,7.80062,0,0,1-.70312,3.3584,6.25093,6.25093,0,0,1-1.71875,2.28613l-.06348-.0625A8.05,8.05,0,0,0,19.92033,90.43Z" style="fill:#2a66aa"/><path d="M61.90373,122.265c-.06641.05371-.14258.12012-.23047.19824a2.09075,2.09075,0,0,1-.31055.22461,2.48,2.48,0,0,1-.373.19336,1.10176,1.10176,0,0,1-.43653.08594,1.212,1.212,0,0,1-1.0039-.459,1.96126,1.96126,0,0,1-.36524-1.252,2.87746,2.87746,0,0,1,.20313-1.0625,3.06156,3.06156,0,0,1,.5625-.918,2.8186,2.8186,0,0,1,.80566-.62988,2.02506,2.02506,0,0,1,.9502-.24317,2.07738,2.07738,0,0,1,.59863.085,1.721,1.721,0,0,1,.44531.19434l.81055-.207.04492.0625-.666,2.83594c-.02442.08984-.04883.20117-.07227.333a1.77969,1.77969,0,0,0-.03613.28809.42662.42662,0,0,0,.10351.33789.56974.56974,0,0,0,.35547.085,1.57058,1.57058,0,0,0,.23828-.02637,1.73634,1.73634,0,0,0,.23926-.05468l-.06348.27929q-.3955.1626-.58984.2295a1.4453,1.4453,0,0,1-.47266.06738.68288.68288,0,0,1-.499-.17969.69248.69248,0,0,1-.20312-.46777Zm.63379-3.05664a.60317.60317,0,0,0-.12988-.248.66645.66645,0,0,0-.24317-.1748.96841.96841,0,0,0-.38769-.06739,1.07623,1.07623,0,0,0-.625.21094,2.23807,2.23807,0,0,0-.54493.5625,2.965,2.965,0,0,0-.36914.81055,3.33018,3.33018,0,0,0-.14355.96289,3.13942,3.13942,0,0,0,.03125.47754,1.35228,1.35228,0,0,0,.1123.37793.56962.56962,0,0,0,.24317.26172.83212.83212,0,0,0,.40527.08984,1.121,1.121,0,0,0,.5127-.13965,2.60745,2.60745,0,0,0,.6123-.48144l.55859-2.36817A1.142,1.142,0,0,0,62.53752,119.20831Z" style="fill:#2a66aa"/><path d="M92.75822,121.20245a2.98456,2.98456,0,0,1-.5625.918,2.85083,2.85083,0,0,1-.80566.626,2.043,2.043,0,0,1-.9502.2295,2.9453,2.9453,0,0,1-.666-.06739,1.93869,1.93869,0,0,1-.48633-.17578,1.48143,1.48143,0,0,1-.3418-.25683,2.1137,2.1137,0,0,1-.25195-.31934l1.13379-4.96973c.01269-.06543.02441-.124.03613-.1748a.61926.61926,0,0,0,.01855-.14942.49732.49732,0,0,0-.0498-.24707.32034.32034,0,0,0-.14844-.13086.87537.87537,0,0,0-.23437-.04882c-.09571-.00977-.19141-.01953-.28809-.03223l.06348-.26953,1.6289-.09961.04493.06348-.666,2.92578h.01856a2.88482,2.88482,0,0,1,.69726-.48633,1.42156,1.42156,0,0,1,.58106-.13477,1.3047,1.3047,0,0,1,1.05273.459,1.8339,1.8339,0,0,1,.3877,1.22461A2.981,2.981,0,0,1,92.75822,121.20245Zm-.73828-1.56641a1.019,1.019,0,0,0-.13965-.38769.69077.69077,0,0,0-.27441-.26563.91951.91951,0,0,0-.43653-.09375.89515.89515,0,0,0-.293.04883,1.48924,1.48924,0,0,0-.28321.13965,1.78054,1.78054,0,0,0-.24707.19433c-.081.07422-.15527.13868-.2207.19336l-.58594,2.61036a.44836.44836,0,0,0,.07715.19335.71359.71359,0,0,0,.17578.18457.93745.93745,0,0,0,.61133.207,1.15108,1.15108,0,0,0,.65332-.20215,1.86274,1.86274,0,0,0,.52637-.55371,2.813,2.813,0,0,0,.36035-.84668,3.90961,3.90961,0,0,0,.11719-.9541A2.70376,2.70376,0,0,0,92.01994,119.636Z" style="fill:#2a66aa"/><line x1="61.45229" y1="112.95657" x2="61.45229" y2="112.45657" style="fill:none;stroke:#2a66aa;stroke-miterlimit:10;stroke-width:0.5px"/><line x1="61.45229" y1="111.4375" x2="61.45229" y2="95.64184" style="fill:none;stroke:#2a66aa;stroke-miterlimit:10;stroke-width:0.5px;stroke-dasharray:1.0190744400024414,1.0190744400024414"/><line x1="61.45229" y1="95.13231" x2="61.45229" y2="94.63231" style="fill:none;stroke:#2a66aa;stroke-miterlimit:10;stroke-width:0.5px"/><line x1="90.77652" y1="113.74109" x2="90.77652" y2="113.24109" style="fill:none;stroke:#2a66aa;stroke-miterlimit:10;stroke-width:0.5px"/><line x1="90.77652" y1="112.43714" x2="90.77652" y2="111.23121" style="fill:none;stroke:#2a66aa;stroke-miterlimit:10;stroke-width:0.5px;stroke-dasharray:0.8039549589157104,0.8039549589157104"/><line x1="90.77652" y1="110.82923" x2="90.77652" y2="110.32923" style="fill:none;stroke:#2a66aa;stroke-miterlimit:10;stroke-width:0.5px"/><line x1="24.66406" y1="108.47417" x2="25.16406" y2="108.47417" style="fill:none;stroke:#2a66aa;stroke-miterlimit:10;stroke-width:0.5px"/><line x1="26.17493" y1="108.47417" x2="86.32123" y2="108.47417" style="fill:none;stroke:#2a66aa;stroke-miterlimit:10;stroke-width:0.5px;stroke-dasharray:1.0108623504638672,1.0108623504638672"/><line x1="86.82666" y1="108.47417" x2="87.32666" y2="108.47417" style="fill:none;stroke:#2a66aa;stroke-miterlimit:10;stroke-width:0.5px"/><line x1="24.43036" y1="91.15366" x2="24.93036" y2="91.15366" style="fill:none;stroke:#2a66aa;stroke-miterlimit:10;stroke-width:0.5px"/><line x1="25.91353" y1="91.15366" x2="56.88352" y2="91.15366" style="fill:none;stroke:#2a66aa;stroke-miterlimit:10;stroke-width:0.5px;stroke-dasharray:0.9831743240356445,0.9831743240356445"/><line x1="57.37511" y1="91.15366" x2="57.87511" y2="91.15366" style="fill:none;stroke:#2a66aa;stroke-miterlimit:10;stroke-width:0.5px"/><path d="M42.69494,75.19107l.01051.01157q.05127.0564.113.12363C45.46781,78.21166,62.563,95.896,97.03869,111.40456" style="fill:none;stroke:#c62958;stroke-miterlimit:10;stroke-width:0.75px"/><line x1="61.45228" y1="28.08115" x2="61.45228" y2="33.41449" style="fill:none;stroke:#2a66aa;stroke-miterlimit:10;stroke-width:0.75px"/><line x1="64.11895" y1="30.74782" x2="58.78562" y2="30.74782" style="fill:none;stroke:#2a66aa;stroke-miterlimit:10;stroke-width:0.75px"/><line x1="90.77652" y1="8.03091" x2="90.77652" y2="13.36425" style="fill:none;stroke:#2a66aa;stroke-miterlimit:10;stroke-width:0.75px"/><line x1="93.44319" y1="10.69758" x2="88.10986" y2="10.69758" style="fill:none;stroke:#2a66aa;stroke-miterlimit:10;stroke-width:0.75px"/><line x1="61.45228" y1="88.48699" x2="61.45228" y2="93.82032" style="fill:none;stroke:#2a66aa;stroke-miterlimit:10;stroke-width:0.75px"/><line x1="64.11895" y1="91.15366" x2="58.78562" y2="91.15366" style="fill:none;stroke:#2a66aa;stroke-miterlimit:10;stroke-width:0.75px"/><line x1="90.77652" y1="105.8075" x2="90.77652" y2="111.14083" style="fill:none;stroke:#2a66aa;stroke-miterlimit:10;stroke-width:0.75px"/><line x1="93.44319" y1="108.47417" x2="88.10986" y2="108.47417" style="fill:none;stroke:#2a66aa;stroke-miterlimit:10;stroke-width:0.75px"/><line x1="42.69062" y1="48.20162" x2="97.05255" y2="48.20162" style="fill:none;stroke:#b7c947;stroke-miterlimit:10;stroke-width:0.75px"/><path d="M44.19452,44.4858V45.062h-.82373v6.28808h.82373v.56739h-1.5039V44.4858Z" style="fill:#b7c947"/><path d="M97.05255,44.4858v7.43164H95.54864v-.56739h.82373V45.062h-.82373V44.4858Z" style="fill:#b7c947"/><line x1="42.69062" y1="114.02139" x2="97.05255" y2="114.02139" style="fill:none;stroke:#b7c947;stroke-miterlimit:10;stroke-width:0.75px"/><path d="M44.19452,110.30557v.57617h-.82373v6.28808h.82373v.56739h-1.5039v-7.43164Z" style="fill:#b7c947"/><path d="M97.05255,110.30557v7.43164H95.54864v-.56739h.82373v-6.28808h-.82373v-.57617Z" style="fill:#b7c947"/></g></svg>