<?xml version="1.0" encoding="UTF-8"?>
<svg xmlns="http://www.w3.org/2000/svg" xmlns:xlink="http://www.w3.org/1999/xlink" width="169.329" height="82.035" viewBox="0 0 169.329 82.035">
<defs>
<g>
<g id="glyph-0-0">
<path d="M 3.609375 -2.03125 L 6.078125 -2.03125 C 6.203125 -2.03125 6.359375 -2.03125 6.359375 -2.203125 C 6.359375 -2.390625 6.203125 -2.390625 6.078125 -2.390625 L 3.609375 -2.390625 L 3.609375 -4.859375 C 3.609375 -4.984375 3.609375 -5.140625 3.4375 -5.140625 C 3.25 -5.140625 3.25 -4.984375 3.25 -4.859375 L 3.25 -2.390625 L 0.78125 -2.390625 C 0.65625 -2.390625 0.5 -2.390625 0.5 -2.203125 C 0.5 -2.03125 0.65625 -2.03125 0.78125 -2.03125 L 3.25 -2.03125 L 3.25 0.4375 C 3.25 0.5625 3.25 0.734375 3.4375 0.734375 C 3.609375 0.734375 3.609375 0.5625 3.609375 0.4375 Z M 3.609375 -2.03125 "/>
</g>
<g id="glyph-1-0">
<path d="M 0.5625 -4.703125 L 0.65625 -4.703125 L 1.75 -5.1875 C 1.75 -5.203125 1.765625 -5.203125 1.765625 -5.203125 C 1.828125 -5.203125 1.84375 -5.125 1.84375 -4.921875 L 1.84375 -0.8125 C 1.84375 -0.375 1.75 -0.28125 1.28125 -0.25 L 0.8125 -0.234375 L 0.8125 0.03125 C 2.125 0 2.125 0 2.203125 0 C 2.328125 0 2.5 0 2.796875 0.015625 C 2.890625 0.015625 3.1875 0.015625 3.546875 0.03125 L 3.546875 -0.234375 L 3.09375 -0.25 C 2.640625 -0.28125 2.546875 -0.375 2.546875 -0.8125 L 2.546875 -5.828125 L 2.4375 -5.875 C 1.875 -5.59375 1.28125 -5.328125 0.515625 -5.0625 Z M 0.5625 -4.703125 "/>
</g>
<g id="glyph-1-1">
<path d="M 2.234375 -5.828125 C 0.921875 -5.828125 0.25 -4.796875 0.25 -2.75 C 0.25 -1.75 0.421875 -0.890625 0.71875 -0.484375 C 1.015625 -0.0625 1.484375 0.171875 2.015625 0.171875 C 3.296875 0.171875 3.9375 -0.9375 3.9375 -3.09375 C 3.9375 -4.953125 3.390625 -5.828125 2.234375 -5.828125 Z M 2.078125 -5.53125 C 2.890625 -5.53125 3.234375 -4.703125 3.234375 -2.671875 C 3.234375 -0.875 2.90625 -0.125 2.125 -0.125 C 1.296875 -0.125 0.953125 -0.984375 0.953125 -3.046875 C 0.953125 -4.828125 1.265625 -5.53125 2.078125 -5.53125 Z M 2.078125 -5.53125 "/>
</g>
<g id="glyph-2-0">
<path d="M 6.5 -2.265625 C 6.671875 -2.265625 6.84375 -2.265625 6.84375 -2.46875 C 6.84375 -2.65625 6.671875 -2.65625 6.5 -2.65625 L 1.15625 -2.65625 C 1 -2.65625 0.8125 -2.65625 0.8125 -2.46875 C 0.8125 -2.265625 1 -2.265625 1.15625 -2.265625 Z M 6.5 -2.265625 "/>
</g>
<g id="glyph-3-0">
<path d="M 4.03125 -2.265625 L 6.78125 -2.265625 C 6.921875 -2.265625 7.109375 -2.265625 7.109375 -2.46875 C 7.109375 -2.65625 6.921875 -2.65625 6.78125 -2.65625 L 4.03125 -2.65625 L 4.03125 -5.421875 C 4.03125 -5.5625 4.03125 -5.75 3.828125 -5.75 C 3.640625 -5.75 3.640625 -5.5625 3.640625 -5.421875 L 3.640625 -2.65625 L 0.875 -2.65625 C 0.734375 -2.65625 0.546875 -2.65625 0.546875 -2.46875 C 0.546875 -2.265625 0.734375 -2.265625 0.875 -2.265625 L 3.640625 -2.265625 L 3.640625 0.5 C 3.640625 0.625 3.640625 0.8125 3.828125 0.8125 C 4.03125 0.8125 4.03125 0.625 4.03125 0.5 Z M 4.03125 -2.265625 "/>
</g>
</g>
<clipPath id="clip-0">
<path clip-rule="nonzero" d="M 0 0 L 169.328125 0 L 169.328125 82.035156 L 0 82.035156 Z M 0 0 "/>
</clipPath>
<clipPath id="clip-1">
<path clip-rule="nonzero" d="M 0 0 L 43 0 L 43 82.035156 L 0 82.035156 Z M 0 0 "/>
</clipPath>
<clipPath id="clip-2">
<path clip-rule="nonzero" d="M 0 0 L 44 0 L 44 82.035156 L 0 82.035156 Z M 0 0 "/>
</clipPath>
<clipPath id="clip-3">
<path clip-rule="nonzero" d="M 42 0 L 169.328125 0 L 169.328125 82.035156 L 42 82.035156 Z M 42 0 "/>
</clipPath>
<clipPath id="clip-4">
<path clip-rule="nonzero" d="M 0 0 L 169.328125 0 L 169.328125 82.035156 L 0 82.035156 Z M 0 0 "/>
</clipPath>
<clipPath id="clip-5">
<path clip-rule="nonzero" d="M 166 55 L 169.328125 55 L 169.328125 60 L 166 60 Z M 166 55 "/>
</clipPath>
<clipPath id="clip-6">
<path clip-rule="nonzero" d="M 56 2 L 58 2 L 58 82.035156 L 56 82.035156 Z M 56 2 "/>
</clipPath>
<clipPath id="clip-7">
<path clip-rule="nonzero" d="M 0 56 L 44 56 L 44 82.035156 L 0 82.035156 Z M 0 56 "/>
</clipPath>
</defs>
<g clip-path="url(#clip-0)">
<path fill="none" stroke-width="42.5196" stroke-linecap="butt" stroke-linejoin="miter" stroke="rgb(99.777222%, 96.307373%, 83.92334%)" stroke-opacity="1" stroke-miterlimit="10" d="M 233.864687 5095.99875 L 233.864687 2460.490937 L 5718.90375 2460.490937 L 5718.90375 7731.506562 L 233.864687 7731.506562 Z M 233.864687 5095.99875 " transform="matrix(0.1, 0, 0, -0.1, -64.156, 667.303)"/>
<rect x="-16.9329" y="-8.2035" width="203.1948" height="98.442" fill="rgb(99.261475%, 89.302063%, 76.673889%)" fill-opacity="1"/>
</g>
<g clip-path="url(#clip-1)">
<path fill-rule="nonzero" fill="rgb(99.479675%, 92.800903%, 92.051697%)" fill-opacity="1" d="M 0.332031 85.867188 L 0.332031 0.828125 L 42.851562 0.828125 L 42.851562 85.867188 Z M 0.332031 85.867188 "/>
</g>
<g clip-path="url(#clip-2)">
<path fill="none" stroke-width="0.85039" stroke-linecap="round" stroke-linejoin="round" stroke="rgb(99.479675%, 92.800903%, 92.051697%)" stroke-opacity="1" stroke-miterlimit="10" d="M -56.692969 -28.346187 L -56.692969 56.692875 L -14.173438 56.692875 L -14.173438 -28.346187 Z M -56.692969 -28.346187 " transform="matrix(1, 0, 0, -1, 57.025, 57.521)"/>
</g>
<g clip-path="url(#clip-3)">
<path fill-rule="nonzero" fill="rgb(90.000916%, 96.540833%, 94.561768%)" fill-opacity="1" stroke-width="0.85039" stroke-linecap="round" stroke-linejoin="round" stroke="rgb(90.000916%, 96.540833%, 94.561768%)" stroke-opacity="1" stroke-miterlimit="10" d="M 113.389062 -28.346187 L 113.389062 56.692875 L -14.173438 56.692875 L -14.173438 -28.346187 Z M 113.389062 -28.346187 " transform="matrix(1, 0, 0, -1, 57.025, 57.521)"/>
</g>
<g clip-path="url(#clip-4)">
<path fill="none" stroke-width="0.85039" stroke-linecap="round" stroke-linejoin="round" stroke="rgb(60.00061%, 87.135315%, 97.491455%)" stroke-opacity="1" stroke-miterlimit="10" d="M -56.692969 -28.346187 L 113.389062 -28.346187 M -56.692969 -14.174312 L 113.389062 -14.174312 M -56.692969 0.00146875 L 113.389062 0.00146875 M -56.692969 14.173344 L 113.389062 14.173344 M -56.692969 28.345219 L 113.389062 28.345219 M -56.692969 42.521 L 113.389062 42.521 M -56.692969 56.692875 L 113.389062 56.692875 M -56.692969 -28.346187 L -56.692969 56.692875 M -42.521094 -28.346187 L -42.521094 56.692875 M -28.345313 -28.346187 L -28.345313 56.692875 M -14.173438 -28.346187 L -14.173438 56.692875 M -0.0015625 -28.346187 L -0.0015625 56.692875 M 14.174219 -28.346187 L 14.174219 56.692875 M 28.346094 -28.346187 L 28.346094 56.692875 M 42.521875 -28.346187 L 42.521875 56.692875 M 56.69375 -28.346187 L 56.69375 56.692875 M 70.865625 -28.346187 L 70.865625 56.692875 M 85.041406 -28.346187 L 85.041406 56.692875 M 99.213281 -28.346187 L 99.213281 56.692875 M 113.389062 -28.346187 L 113.389062 56.692875 " transform="matrix(1, 0, 0, -1, 57.025, 57.521)"/>
</g>
<path fill="none" stroke-width="0.85039" stroke-linecap="square" stroke-linejoin="round" stroke="rgb(13.729858%, 12.159729%, 12.548828%)" stroke-opacity="1" stroke-miterlimit="10" d="M -56.692969 0.00146875 L 110.717187 0.00146875 " transform="matrix(1, 0, 0, -1, 57.025, 57.521)"/>
<g clip-path="url(#clip-5)">
<path fill-rule="nonzero" fill="rgb(13.729858%, 12.159729%, 12.548828%)" fill-opacity="1" d="M 170.414062 57.519531 L 166.140625 55.382812 L 167.742188 57.519531 L 166.140625 59.65625 "/>
</g>
<g fill="rgb(13.729858%, 12.159729%, 12.548828%)" fill-opacity="1">
<use xlink:href="#glyph-0-0" x="81.942" y="59.727"/>
</g>
<g fill="rgb(13.729858%, 12.159729%, 12.548828%)" fill-opacity="1">
<use xlink:href="#glyph-1-0" x="83.255" y="67.012"/>
</g>
<g clip-path="url(#clip-6)">
<path fill="none" stroke-width="0.85039" stroke-linecap="square" stroke-linejoin="round" stroke="rgb(13.729858%, 12.159729%, 12.548828%)" stroke-opacity="1" stroke-miterlimit="10" d="M -0.0015625 -28.346187 L -0.0015625 54.024906 " transform="matrix(1, 0, 0, -1, 57.025, 57.521)"/>
</g>
<path fill-rule="nonzero" fill="rgb(13.729858%, 12.159729%, 12.548828%)" fill-opacity="1" d="M 57.023438 0.828125 L 54.890625 5.101562 L 57.023438 3.496094 L 59.160156 5.101562 "/>
<g fill="rgb(13.729858%, 12.159729%, 12.548828%)" fill-opacity="1">
<use xlink:href="#glyph-0-0" x="53.596" y="31.38"/>
</g>
<g fill="rgb(13.729858%, 12.159729%, 12.548828%)" fill-opacity="1">
<use xlink:href="#glyph-1-0" x="49.211" y="32.104"/>
</g>
<g fill="rgb(13.729858%, 12.159729%, 12.548828%)" fill-opacity="1">
<use xlink:href="#glyph-1-1" x="49.211" y="66.885"/>
</g>
<g clip-path="url(#clip-7)">
<path fill="none" stroke-width="1.41731" stroke-linecap="butt" stroke-linejoin="round" stroke="rgb(94.195557%, 23.883057%, 37.606812%)" stroke-opacity="1" stroke-miterlimit="10" d="M -56.692969 -28.346187 L -14.173438 0.00146875 " transform="matrix(1, 0, 0, -1, 57.025, 57.521)"/>
</g>
<path fill="none" stroke-width="1.41731" stroke-linecap="butt" stroke-linejoin="round" stroke="rgb(0%, 66.468811%, 62.548828%)" stroke-opacity="1" stroke-miterlimit="10" d="M -14.173438 0.00146875 L 70.865625 56.692875 " transform="matrix(1, 0, 0, -1, 57.025, 57.521)"/>
<path fill="none" stroke-width="1.41731" stroke-linecap="butt" stroke-linejoin="round" stroke="rgb(94.195557%, 23.883057%, 37.606812%)" stroke-opacity="1" stroke-miterlimit="10" d="M -25.860938 21.259281 C -25.860938 26.548344 -30.146094 30.8335 -35.435156 30.8335 C -40.720313 30.8335 -45.009375 26.548344 -45.009375 21.259281 C -45.009375 15.974125 -40.720313 11.685063 -35.435156 11.685063 C -30.146094 11.685063 -25.860938 15.974125 -25.860938 21.259281 Z M -25.860938 21.259281 " transform="matrix(1, 0, 0, -1, 57.025, 57.521)"/>
<g fill="rgb(94.195557%, 23.883057%, 37.606812%)" fill-opacity="1">
<use xlink:href="#glyph-2-0" x="17.758" y="38.726"/>
</g>
<path fill="none" stroke-width="1.41731" stroke-linecap="butt" stroke-linejoin="round" stroke="rgb(0%, 66.468811%, 62.548828%)" stroke-opacity="1" stroke-miterlimit="10" d="M 87.529687 21.259281 C 87.529687 26.548344 83.240625 30.8335 77.955469 30.8335 C 72.666406 30.8335 68.38125 26.548344 68.38125 21.259281 C 68.38125 15.974125 72.666406 11.685063 77.955469 11.685063 C 83.240625 11.685063 87.529687 15.974125 87.529687 21.259281 Z M 87.529687 21.259281 " transform="matrix(1, 0, 0, -1, 57.025, 57.521)"/>
<g fill="rgb(0%, 66.468811%, 62.548828%)" fill-opacity="1">
<use xlink:href="#glyph-3-0" x="131.145" y="38.726"/>
</g>
</svg>