<?xml version="1.0" encoding="UTF-8"?>
<svg xmlns="http://www.w3.org/2000/svg" xmlns:xlink="http://www.w3.org/1999/xlink" width="140.932" height="111.484" viewBox="0 0 140.932 111.484">
<defs>
<g>
<g id="glyph-0-0">
<path d="M 3.609375 -2.03125 L 6.078125 -2.03125 C 6.203125 -2.03125 6.359375 -2.03125 6.359375 -2.203125 C 6.359375 -2.390625 6.203125 -2.390625 6.078125 -2.390625 L 3.609375 -2.390625 L 3.609375 -4.859375 C 3.609375 -4.984375 3.609375 -5.140625 3.4375 -5.140625 C 3.25 -5.140625 3.25 -4.984375 3.25 -4.859375 L 3.25 -2.390625 L 0.78125 -2.390625 C 0.65625 -2.390625 0.5 -2.390625 0.5 -2.203125 C 0.5 -2.03125 0.65625 -2.03125 0.78125 -2.03125 L 3.25 -2.03125 L 3.25 0.4375 C 3.25 0.5625 3.25 0.734375 3.4375 0.734375 C 3.609375 0.734375 3.609375 0.5625 3.609375 0.4375 Z M 3.609375 -2.03125 "/>
</g>
<g id="glyph-1-0">
<path d="M 0.875 -5.625 L 1.265625 -5.609375 C 1.46875 -5.59375 1.5625 -5.53125 1.5625 -5.390625 C 1.5625 -5.328125 1.515625 -4.875 1.484375 -4.734375 L 0.875 -1.0625 C 0.75 -0.3125 0.734375 -0.265625 0.390625 -0.234375 L 0.078125 -0.21875 L 0.0625 0.03125 L 0.328125 0.03125 L 1.125 0 L 1.921875 0.03125 L 2.1875 0.03125 L 2.21875 -0.21875 L 1.78125 -0.234375 C 1.5625 -0.25 1.46875 -0.3125 1.46875 -0.484375 C 1.46875 -0.53125 1.484375 -0.625 1.484375 -0.65625 L 2.25 -5.1875 C 2.296875 -5.515625 2.34375 -5.5625 2.671875 -5.59375 L 2.96875 -5.625 L 3 -5.859375 L 2.921875 -5.859375 L 2.09375 -5.828125 C 1.953125 -5.828125 1.796875 -5.828125 1.4375 -5.84375 L 0.890625 -5.859375 Z M 0.875 -5.625 "/>
</g>
<g id="glyph-1-1">
<path d="M 3 -5.625 L 3.03125 -5.859375 L 2.828125 -5.859375 L 2.0625 -5.828125 C 1.9375 -5.828125 1.78125 -5.828125 1.421875 -5.84375 L 0.875 -5.859375 L 0.84375 -5.625 L 1.25 -5.609375 C 1.453125 -5.59375 1.546875 -5.53125 1.546875 -5.375 C 1.546875 -5.328125 1.546875 -5.3125 1.53125 -5.265625 L 0.734375 0.171875 C 0.59375 1.046875 0.34375 1.46875 -0.046875 1.46875 C -0.15625 1.46875 -0.234375 1.46875 -0.296875 1.4375 L -0.265625 1.65625 C -0.171875 1.71875 -0.078125 1.75 0.03125 1.75 C 0.484375 1.75 0.921875 1.34375 1.21875 0.65625 C 1.34375 0.34375 1.421875 0.0625 1.5 -0.453125 L 2.21875 -5.1875 C 2.265625 -5.515625 2.328125 -5.578125 2.65625 -5.59375 Z M 3 -5.625 "/>
</g>
<g id="glyph-2-0">
<path d="M 4.390625 -6.6875 C 2.15625 -6.6875 0.5 -4.953125 0.5 -2.578125 C 0.5 -0.78125 1.390625 0.171875 3.0625 0.171875 C 3.859375 0.171875 4.53125 -0.015625 5.15625 -0.390625 C 6.34375 -1.140625 7.078125 -2.53125 7.078125 -4.03125 C 7.078125 -5.703125 6.09375 -6.6875 4.390625 -6.6875 Z M 4.09375 -6.28125 C 4.546875 -6.28125 5.015625 -6.171875 5.328125 -5.984375 C 5.953125 -5.625 6.25 -4.921875 6.25 -3.875 C 6.25 -2.671875 5.875 -1.609375 5.234375 -0.953125 C 4.765625 -0.46875 4.140625 -0.234375 3.40625 -0.234375 C 2.046875 -0.234375 1.328125 -1.046875 1.328125 -2.625 C 1.328125 -3.859375 1.71875 -4.96875 2.375 -5.609375 C 2.8125 -6.0625 3.375 -6.28125 4.09375 -6.28125 Z M 4.09375 -6.28125 "/>
</g>
<g id="glyph-2-1">
<path d="M 3.640625 -4.34375 C 3.234375 -4.5 2.96875 -4.5625 2.6875 -4.5625 C 2.4375 -4.5625 2.203125 -4.484375 1.9375 -4.328125 C 1.59375 -4.125 1.1875 -3.78125 0.96875 -3.546875 C 0.59375 -3.09375 0.234375 -1.71875 0.234375 -0.734375 C 0.234375 -0.1875 0.34375 0.109375 0.5625 0.109375 C 0.78125 0.109375 0.953125 0.03125 1.265625 -0.1875 L 1.328125 -0.234375 C 1.953125 -0.671875 2.5625 -1.359375 2.921875 -1.984375 L 2.203125 1.9375 C 2.15625 2.171875 2.0625 2.359375 1.9375 2.484375 L 2.03125 2.609375 C 2.3125 2.53125 2.609375 2.484375 2.84375 2.453125 C 2.875 1.9375 2.9375 1.421875 3.015625 0.953125 L 3.828125 -3.375 C 3.9375 -3.953125 4 -4.1875 4.09375 -4.484375 L 3.953125 -4.546875 Z M 3.125 -2.9375 C 3.015625 -2.46875 2.8125 -2.046875 2.46875 -1.609375 C 1.96875 -1 1.390625 -0.5625 1.125 -0.5625 C 0.984375 -0.5625 0.90625 -0.75 0.90625 -1.0625 C 0.90625 -1.984375 1.3125 -3.40625 1.71875 -3.875 C 1.828125 -4.015625 2.109375 -4.09375 2.40625 -4.09375 C 2.671875 -4.09375 2.875 -4.046875 3.328125 -3.84375 Z M 3.125 -2.9375 "/>
</g>
<g id="glyph-2-2">
<path d="M 1.09375 -0.03125 L 1.171875 0 C 1.421875 0.078125 1.5625 0.109375 1.671875 0.109375 C 2.203125 0.109375 3.28125 -0.59375 3.6875 -1.1875 C 4.078125 -1.765625 4.40625 -2.796875 4.40625 -3.515625 C 4.40625 -4.140625 4.1875 -4.5625 3.84375 -4.5625 C 3.453125 -4.5625 2.9375 -4.3125 2.453125 -3.875 C 2.0625 -3.546875 1.875 -3.296875 1.53125 -2.734375 L 1.765625 -3.859375 C 1.796875 -4.03125 1.8125 -4.171875 1.8125 -4.28125 C 1.8125 -4.453125 1.734375 -4.5625 1.59375 -4.5625 C 1.40625 -4.5625 1.046875 -4.359375 0.34375 -3.859375 L 0.078125 -3.671875 L 0.140625 -3.484375 L 0.4375 -3.6875 C 0.703125 -3.859375 0.8125 -3.90625 0.90625 -3.90625 C 1 -3.90625 1.0625 -3.8125 1.0625 -3.6875 C 1.0625 -3.609375 1.046875 -3.421875 1.015625 -3.328125 L 0.46875 -0.078125 C 0.375 0.5 0.203125 1.359375 0.015625 2.203125 L -0.0625 2.5625 L 0 2.609375 C 0.203125 2.546875 0.390625 2.5 0.6875 2.453125 Z M 1.359375 -1.5625 C 1.5625 -2.78125 2.578125 -4.015625 3.359375 -4.015625 C 3.609375 -4.015625 3.71875 -3.8125 3.71875 -3.375 C 3.71875 -2.609375 3.34375 -1.484375 2.84375 -0.75 C 2.65625 -0.484375 2.34375 -0.34375 1.953125 -0.34375 C 1.671875 -0.34375 1.4375 -0.40625 1.1875 -0.5625 Z M 1.359375 -1.5625 "/>
</g>
<g id="glyph-3-0">
<path d="M 4.375 -2.46875 C 4.375 -3.515625 3.5 -4.375 2.46875 -4.375 C 1.40625 -4.375 0.546875 -3.5 0.546875 -2.46875 C 0.546875 -1.421875 1.40625 -0.546875 2.46875 -0.546875 C 3.5 -0.546875 4.375 -1.40625 4.375 -2.46875 Z M 4.375 -2.46875 "/>
</g>
<g id="glyph-3-1">
<path d="M 2.015625 0 C 4.3125 0 7.546875 -1.75 7.546875 -4.453125 C 7.546875 -5.328125 7.140625 -5.875 6.65625 -6.1875 C 5.8125 -6.734375 4.90625 -6.734375 3.96875 -6.734375 C 3.109375 -6.734375 2.53125 -6.734375 1.703125 -6.375 C 0.390625 -5.796875 0.203125 -4.984375 0.203125 -4.90625 C 0.203125 -4.84375 0.25 -4.828125 0.3125 -4.828125 C 0.46875 -4.828125 0.6875 -4.953125 0.765625 -5.015625 C 0.96875 -5.140625 1 -5.203125 1.0625 -5.390625 C 1.203125 -5.78125 1.484375 -6.125 2.71875 -6.1875 C 2.5625 -4.125 2.0625 -2.25 1.375 -0.515625 C 1 -0.390625 0.765625 -0.171875 0.765625 -0.0625 C 0.765625 -0.015625 0.78125 0 1 0 Z M 2.0625 -0.546875 C 3.1875 -3.296875 3.390625 -5.015625 3.53125 -6.1875 C 4.1875 -6.1875 6.71875 -6.1875 6.71875 -4.015625 C 6.71875 -2.09375 4.984375 -0.546875 2.59375 -0.546875 Z M 2.0625 -0.546875 "/>
</g>
</g>
</defs>
<path fill="none" stroke-width="0.85039" stroke-linecap="round" stroke-linejoin="round" stroke="rgb(60.00061%, 87.135315%, 97.491455%)" stroke-opacity="1" stroke-miterlimit="10" d="M -56.694469 -28.347687 L 70.868031 -28.347687 M -56.694469 -14.171906 L 70.868031 -14.171906 M -56.694469 -0.00003125 L 70.868031 -0.00003125 M -56.694469 14.171844 L 70.868031 14.171844 M -56.694469 28.347625 L 70.868031 28.347625 M -56.694469 42.5195 L 70.868031 42.5195 M -56.694469 56.695281 L 70.868031 56.695281 M -56.694469 70.86325 L 70.868031 70.86325 M -56.694469 -28.347687 L -56.694469 70.867156 M -42.518688 -28.347687 L -42.518688 70.867156 M -28.346813 -28.347687 L -28.346813 70.867156 M -14.174938 -28.347687 L -14.174938 70.867156 M 0.00084375 -28.347687 L 0.00084375 70.867156 M 14.172719 -28.347687 L 14.172719 70.867156 M 28.3485 -28.347687 L 28.3485 70.867156 M 42.520375 -28.347687 L 42.520375 70.867156 M 56.69225 -28.347687 L 56.69225 70.867156 M 70.860219 -28.347687 L 70.860219 70.867156 " transform="matrix(1, 0, 0, -1, 62.839, 79.457)"/>
<path fill="none" stroke-width="0.85039" stroke-linecap="square" stroke-linejoin="round" stroke="rgb(13.729858%, 12.159729%, 12.548828%)" stroke-opacity="1" stroke-miterlimit="10" d="M -56.694469 -0.00003125 L 68.196156 -0.00003125 " transform="matrix(1, 0, 0, -1, 62.839, 79.457)"/>
<path fill-rule="nonzero" fill="rgb(13.729858%, 12.159729%, 12.548828%)" fill-opacity="1" d="M 133.707031 79.457031 L 129.433594 77.320312 L 131.035156 79.457031 L 129.433594 81.59375 "/>
<g fill="rgb(13.729858%, 12.159729%, 12.548828%)" fill-opacity="1">
<use xlink:href="#glyph-0-0" x="73.583" y="81.663"/>
</g>
<g fill="rgb(13.729858%, 12.159729%, 12.548828%)" fill-opacity="1">
<use xlink:href="#glyph-1-0" x="75.64" y="88.893"/>
</g>
<path fill="none" stroke-width="0.85039" stroke-linecap="square" stroke-linejoin="round" stroke="rgb(13.729858%, 12.159729%, 12.548828%)" stroke-opacity="1" stroke-miterlimit="10" d="M 0.00084375 -28.347687 L 0.00084375 68.195281 " transform="matrix(1, 0, 0, -1, 62.839, 79.457)"/>
<path fill-rule="nonzero" fill="rgb(13.729858%, 12.159729%, 12.548828%)" fill-opacity="1" d="M 62.839844 8.589844 L 60.703125 12.863281 L 62.839844 11.261719 L 64.976562 12.863281 "/>
<g fill="rgb(13.729858%, 12.159729%, 12.548828%)" fill-opacity="1">
<use xlink:href="#glyph-0-0" x="59.41" y="67.49"/>
</g>
<g fill="rgb(13.729858%, 12.159729%, 12.548828%)" fill-opacity="1">
<use xlink:href="#glyph-1-1" x="56.037" y="67.339"/>
</g>
<g fill="rgb(13.729858%, 12.159729%, 12.548828%)" fill-opacity="1">
<use xlink:href="#glyph-2-0" x="51.778" y="89.705"/>
</g>
<g fill="rgb(13.729858%, 12.159729%, 12.548828%)" fill-opacity="1">
<use xlink:href="#glyph-3-0" x="17.853" y="67.475"/>
</g>
<g fill="rgb(13.729858%, 12.159729%, 12.548828%)" fill-opacity="1">
<use xlink:href="#glyph-3-0" x="117.067" y="24.954"/>
</g>
<path fill="none" stroke-width="1.41731" stroke-linecap="butt" stroke-linejoin="round" stroke="rgb(13.729858%, 12.159729%, 12.548828%)" stroke-opacity="1" stroke-dasharray="1.41731 1.99255" stroke-miterlimit="10" d="M -42.518688 14.171844 L 56.69225 14.171844 L 56.69225 56.695281 " transform="matrix(1, 0, 0, -1, 62.839, 79.457)"/>
<g fill="rgb(13.729858%, 12.159729%, 12.548828%)" fill-opacity="1">
<use xlink:href="#glyph-2-1" x="67.734" y="61.302"/>
</g>
<g fill="rgb(13.729858%, 12.159729%, 12.548828%)" fill-opacity="1">
<use xlink:href="#glyph-2-2" x="121.679" y="45.003"/>
</g>
<path fill="none" stroke-width="0.85039" stroke-linecap="round" stroke-linejoin="round" stroke="rgb(53.334045%, 0%, 27.449036%)" stroke-opacity="1" stroke-miterlimit="10" d="M -56.694469 8.097625 L 70.868031 62.765594 " transform="matrix(1, 0, 0, -1, 62.839, 79.457)"/>
<g fill="rgb(53.334045%, 0%, 27.449036%)" fill-opacity="1">
<use xlink:href="#glyph-3-1" x="8.755" y="101.245"/>
</g>
</svg>